<?xml version="1.0" standalone="no"?>
<!DOCTYPE svg PUBLIC "-//W3C//DTD SVG 20010904//EN"
 "http://www.w3.org/TR/2001/REC-SVG-20010904/DTD/svg10.dtd">
<svg version="1.0" xmlns="http://www.w3.org/2000/svg"
 width="631.036924pt" height="492.846130pt" viewBox="0 0 631.036924 492.846130"
 preserveAspectRatio="xMidYMid meet">
<metadata>
Created by potrace 1.12, written by Peter Selinger 2001-2015
</metadata>
<g transform="translate(-204.267227,854.899492) scale(0.100000,-0.100000)"
fill="#000000" stroke="none">
<path d="M8205 8531 c-22 -10 -94 -62 -160 -116 -332 -274 -851 -637 -1260
-882 -811 -487 -1684 -816 -2384 -898 -158 -19 -248 -19 -430 0 -178 18 -183
19 -356 61 -306 75 -433 139 -660 333 -117 100 -171 138 -182 127 -9 -9 -22
-88 -23 -136 -1 -113 109 -226 409 -421 309 -200 660 -293 1156 -306 217 -6
326 4 585 53 778 146 1650 519 2455 1049 399 262 765 575 900 769 107 154 131
337 48 375 -33 15 -51 14 -98 -8z"/>
<path d="M6595 8212 c-27 -15 -119 -74 -203 -130 -352 -237 -728 -429 -1157
-592 -268 -102 -546 -180 -810 -226 -191 -34 -473 -39 -624 -11 -269 51 -442
137 -552 276 -161 204 -137 425 65 578 33 25 88 59 121 74 l60 28 -70 -6
c-153 -13 -305 -74 -475 -191 -291 -201 -447 -363 -613 -637 -169 -277 -261
-569 -288 -915 -43 -553 122 -1089 469 -1525 130 -164 410 -412 567 -502 174
-100 191 -106 385 -134 74 -11 164 -24 200 -29 296 -43 954 -57 1280 -26 243
22 426 44 505 61 385 79 823 200 1054 292 390 154 676 342 850 558 95 118 111
215 43 264 -69 48 -135 34 -260 -57 -85 -61 -314 -195 -412 -240 -92 -42 -297
-127 -365 -152 -423 -153 -724 -237 -1036 -290 -268 -46 -399 -59 -629 -66
-558 -17 -1128 77 -1482 244 -127 60 -293 179 -399 289 -90 92 -217 275 -270
388 -20 44 -58 139 -84 210 -38 107 -48 149 -56 235 -4 58 -16 137 -25 175
-10 47 -17 139 -21 275 -6 228 3 294 58 457 16 48 36 126 45 173 9 47 32 128
51 180 45 119 151 339 202 416 45 68 161 194 179 194 8 0 12 -22 12 -72 0
-233 72 -387 244 -520 119 -92 149 -111 287 -179 121 -60 259 -106 407 -136
136 -27 497 -25 707 5 564 80 1198 320 1675 635 151 100 220 158 311 259 146
162 213 289 193 361 -9 28 -14 32 -49 35 -29 1 -54 -6 -90 -26z"/>
<path d="M8175 7681 c-16 -10 -66 -51 -110 -91 -171 -157 -426 -342 -795 -579
-455 -293 -1021 -561 -1590 -754 -665 -225 -1338 -321 -1770 -252 -153 24
-406 84 -512 121 -119 42 -341 148 -423 202 -33 22 -115 90 -183 150 -114 102
-174 143 -189 129 -3 -4 -6 -50 -7 -104 -1 -97 -1 -98 39 -163 21 -36 61 -86
87 -112 117 -114 475 -334 630 -387 46 -16 108 -39 138 -51 81 -32 387 -106
525 -127 167 -25 660 -24 850 1 167 22 576 105 775 157 520 135 1216 427 1660
698 325 198 622 413 770 558 220 214 311 396 265 532 -28 85 -92 114 -160 72z"/>
<path d="M7885 6631 c-22 -10 -72 -48 -111 -84 -185 -168 -407 -312 -776 -505
-600 -314 -1328 -566 -1940 -671 -234 -40 -425 -54 -688 -48 -396 9 -650 50
-960 154 -144 48 -165 57 -275 117 -111 61 -359 217 -396 249 -9 8 -28 16 -43
19 -35 7 -35 -16 1 -102 58 -141 119 -226 231 -323 57 -51 118 -101 136 -111
17 -10 55 -34 84 -53 145 -93 682 -267 937 -303 125 -17 576 -29 737 -19 334
21 903 130 1248 240 485 155 934 353 1315 580 228 136 383 259 501 396 132
155 174 234 174 328 0 80 -17 117 -64 139 -43 20 -62 20 -111 -3z"/>
<path d="M6943 4450 c-43 -26 -68 -66 -68 -110 0 -68 65 -130 136 -130 72 0
151 83 151 157 0 85 -133 136 -219 83z"/>
<path d="M6416 4175 c-115 -57 -413 -163 -574 -205 -178 -46 -865 -91 -1354
-89 -342 2 -408 -3 -408 -30 0 -25 18 -45 80 -91 130 -97 422 -139 960 -139
180 -1 493 20 590 39 86 16 426 109 518 142 215 76 396 173 452 246 26 33 40
86 31 119 -11 41 -64 73 -120 73 -36 0 -73 -14 -175 -65z"/>
</g>
</svg>
